<svg xmlns="http://www.w3.org/2000/svg" width="194.322" height="43.592" viewBox="0 0 194.322 43.592">
  <g id="Logo" transform="translate(-58.678 -42.408)">
    <g id="Grupo_86" data-name="Grupo 86" transform="translate(-298 -33)">
      <g id="Grupo_85" data-name="Grupo 85" transform="translate(356.614 76.423)">
        <g id="students-cap" transform="translate(9.852 0) rotate(21)">
          <path id="Trazado_5" data-name="Trazado 5" d="M14.157,4.355,28.306,0V7.273c0,3.362-6.337,6.088-14.153,6.088S0,10.635,0,7.273c0-.026.009-.053.009-.079V0Z" transform="translate(9.556 14.13)" fill="#4d7bec" stroke="rgba(0,0,0,0)" stroke-width="1"/>
          <path id="Trazado_6" data-name="Trazado 6" d="M47.428,9.123l-5.054,1.808-.431-.923-1.857-.158-.265.275,1.593.378.232.687s3.6,7.524,3.071,11.2a4.642,4.642,0,0,1-4.492,0l-.6-10.063V11.5l-3.342-.754.236.581,2.492.81-1.153.412L23.714,16.9,9.566,12.545,0,9.123,23.714,0Z" transform="translate(0 0)" fill="#4d7bec" stroke="rgba(0,0,0,0)" stroke-width="1"/>
        </g>
      </g>
    </g>
    <text id="Mi_tutor" data-name="Mi tutor" transform="translate(136 75)" fill="#4e83ed" font-size="32" font-family="NunitoSans-Bold, Nunito Sans" font-weight="700"><tspan x="0" y="0">Mi tutor</tspan></text>
  </g>
</svg>
