<svg xmlns="http://www.w3.org/2000/svg" width="258" height="256" viewBox="0 0 258 256">
  <g id="RegisterArt1" transform="translate(-1312 -166)">
    <rect id="Rectángulo_163" data-name="Rectángulo 163" width="256" height="256" transform="translate(1312 166)" fill="#fff"/>
    <g id="mortarboard" transform="translate(1363.998 247.001)">
      <path id="Trazado_31" data-name="Trazado 31" d="M1.943,38.784l74.033,33.1,74.033-33.1a3.281,3.281,0,0,0,0-5.991L77.316.288a3.282,3.282,0,0,0-2.68,0L1.943,32.793a3.282,3.282,0,0,0,0,5.991Zm0,0" transform="translate(0 -0.002)" fill="#636363"/>
      <path id="Trazado_32" data-name="Trazado 32" d="M197.835,32.791,125.143.286a3.277,3.277,0,0,0-2.678,0l-5.39,2.41,67.307,30.1a3.28,3.28,0,0,1,0,5.99l-7.073,3.163-.369-.272c-23.379-17.331-51.755-18.32-52.951-18.354l-.184-.006-.184.006c-1.2.034-29.572,1.022-52.951,18.354l-2.655,1.967v3.3L123.8,71.887l55.79-24.947,18.241-8.158a3.281,3.281,0,0,0,0-5.991Zm0,0" transform="translate(-47.826)" fill="#494949"/>
      <path id="Trazado_33" data-name="Trazado 33" d="M140.829,164.862c13.691-7.036,36.509-9.255,44.7-9.845a3.282,3.282,0,0,0,3.047-3.274v-34c-21.988-16.3-49.227-17.066-49.227-17.066s-27.24.766-49.228,17.066v34a3.28,3.28,0,0,0,3.047,3.273c8.195.59,31.014,2.809,44.7,9.845a3.235,3.235,0,0,0,2.953,0Zm0,0" transform="translate(-63.377 -70.8)" fill="#636363"/>
      <path id="Trazado_34" data-name="Trazado 34" d="M178.734,168.708a6.559,6.559,0,0,1-5.685,6.5c-9.666,1.3-21.917,3.663-30.871,7.889a6.6,6.6,0,0,1-5.645,0c-17.147-8.1-46.41-9.37-46.41-9.37v3.806a3.282,3.282,0,0,0,3.047,3.274c8.195.589,31.014,2.808,44.7,9.843a3.235,3.235,0,0,0,2.953,0c13.691-7.036,36.509-9.255,44.7-9.843a3.282,3.282,0,0,0,3.047-3.274v-34a76.905,76.905,0,0,0-9.846-6.179v31.346Zm0,0" transform="translate(-63.376 -96.597)" fill="#494949"/>
      <path id="Trazado_35" data-name="Trazado 35" d="M354.7,265.92l-5.221-13.74-5.221,13.74a1.969,1.969,0,0,0,1.841,2.669h6.761A1.968,1.968,0,0,0,354.7,265.92Zm0,0" transform="translate(-241.995 -177.34)" fill="#43b995"/>
      <path id="Trazado_36" data-name="Trazado 36" d="M352.72,222.579a6.891,6.891,0,1,1-6.891-6.892A6.89,6.89,0,0,1,352.72,222.579Zm0,0" transform="translate(-238.348 -151.677)" fill="#2fe49a"/>
      <path id="Trazado_37" data-name="Trazado 37" d="M350.115,217.754A6.884,6.884,0,0,1,341,226.865a6.889,6.889,0,1,0,9.111-9.111Zm0,0" transform="translate(-239.801 -153.13)" fill="#43b995"/>
      <path id="Trazado_38" data-name="Trazado 38" d="M358.787,44.913V95.361a2.462,2.462,0,1,1-4.923,0V42.714Zm0,0" transform="translate(-248.844 -30.038)" fill="#58e4b9"/>
    </g>
    <circle id="Elipse_51" data-name="Elipse 51" cx="6.5" cy="6.5" r="6.5" transform="translate(1344 322)" fill="#636363"/>
    <path id="Polígono_2" data-name="Polígono 2" d="M8.415.422a1,1,0,0,1,1.17,0l7.822,5.644a1,1,0,0,1,.365,1.122l-2.985,9.123a1,1,0,0,1-.95.689H4.163a1,1,0,0,1-.95-.689L.227,7.188A1,1,0,0,1,.593,6.066Z" transform="translate(1435.861 386.456) rotate(60)" fill="#2fe49a"/>
    <rect id="Rectángulo_164" data-name="Rectángulo 164" width="20" height="6" rx="3" transform="translate(1381 217)" fill="#636363"/>
    <rect id="Rectángulo_165" data-name="Rectángulo 165" width="37" height="11" rx="5.5" transform="translate(1488 201)" fill="#2fe49a"/>
    <rect id="Rectángulo_166" data-name="Rectángulo 166" width="45" height="6" rx="3" transform="translate(1338 247)" fill="#636363" opacity="0.14"/>
    <rect id="Rectángulo_169" data-name="Rectángulo 169" width="69" height="8" rx="4" transform="translate(1495 352)" fill="#636363" opacity="0.14"/>
    <rect id="Rectángulo_170" data-name="Rectángulo 170" width="36" height="8" rx="4" transform="translate(1477 373)" fill="#636363" opacity="0.14"/>
    <rect id="Rectángulo_171" data-name="Rectángulo 171" width="57" height="8" rx="4" transform="translate(1513 390)" fill="#636363" opacity="0.14"/>
    <rect id="Rectángulo_167" data-name="Rectángulo 167" width="27" height="6" rx="3" transform="translate(1377 360)" fill="#636363" opacity="0.47"/>
    <rect id="Rectángulo_168" data-name="Rectángulo 168" width="13" height="6" rx="3" transform="translate(1448 227)" fill="#636363"/>
    <text id="_" data-name="+" transform="translate(1506 247)" fill="#2fe49a" font-size="24" font-family="NunitoSans-Regular, Nunito Sans"><tspan x="0" y="0">+</tspan></text>
    <text id="_2" data-name="+" transform="translate(1460.207 218.47) rotate(-45)" fill="#2fe49a" font-size="39" font-family="NunitoSans-Regular, Nunito Sans" opacity="0.5"><tspan x="0" y="0">+</tspan></text>
    <g id="Grupo_105" data-name="Grupo 105" transform="translate(-8 -40)">
      <circle id="Elipse_52" data-name="Elipse 52" cx="6.5" cy="6.5" r="6.5" transform="translate(1389 228)" fill="#2fe49a" opacity="0.21"/>
      <circle id="Elipse_54" data-name="Elipse 54" cx="7" cy="7" r="7" transform="translate(1393 233)" fill="#fff"/>
    </g>
  </g>
</svg>
